# xmcd
#
# Track frame offsets:
#	150
#	17304
#	33786
#	51789
#	69351
#	89467
#	100204
#	116157
#	133476
#	152467
#	168890
#
# Disc length: 2463 seconds
#
# Revision: 1
# Processed by: cddbd v1.5.2PL0 Copyright (c) Steve Scherf et al.
# Submitted via: audiograbber 1.83.01
#
DISCID=83099d0b
DTITLE=Sophie Ellis-Bextor - Wanderlust
DYEAR=2014
DGENRE=Pop
TTITLE0=Birth Of An Empire
TTITLE1=Until The Stars Collide
TTITLE2=Runaway Daydreamer
TTITLE3=The Deer and The Wolf
TTITLE4=Young Blood
TTITLE5=Interlude
TTITLE6=13 Little Dolls
TTITLE7=Wrong Side Of The Sun
TTITLE8=Love Is A Camera
TTITLE9=Cry To The Beat Of The Band
TTITLE10=When The Storm Has Blowing Over
EXTD=LOVECD304
EXTT0=
EXTT1=
EXTT2=
EXTT3=
EXTT4=
EXTT5=
EXTT6=
EXTT7=
EXTT8=
EXTT9=
EXTT10=
PLAYORDER=
